<?xml version="1.0" encoding="utf-8"?>
<!-- Generator: Adobe Illustrator 17.0.0, SVG Export Plug-In . SVG Version: 6.00 Build 0)  -->
<!DOCTYPE svg PUBLIC "-//W3C//DTD SVG 1.1//EN" "http://www.w3.org/Graphics/SVG/1.1/DTD/svg11.dtd">
<svg version="1.1" id="Layer_1" xmlns="http://www.w3.org/2000/svg" xmlns:xlink="http://www.w3.org/1999/xlink" x="0px" y="0px"
 width="22px" height="22px" viewBox="0 0 22 22" enable-background="new 0 0 22 22" xml:space="preserve">
<path fill="#FFFFFF" d="M20.248,2.752c-2.336-2.336-6.159-2.336-8.496,0C11.466,3.039,11.216,3.349,11,3.675
c-0.216-0.326-0.466-0.636-0.752-0.922c-2.336-2.336-6.159-2.336-8.496,0c-2.336,2.336-2.336,6.159,0,8.496L11,21l9.248-9.752
C22.584,8.911,22.584,5.089,20.248,2.752z M19.541,10.541L11,19.547L2.478,10.56C0.507,8.588,0.507,5.412,2.459,3.459
C3.4,2.518,4.658,2,6,2s2.6,0.518,3.541,1.459c0.23,0.231,0.44,0.489,0.625,0.768L11,5.487l0.834-1.26
c0.185-0.278,0.395-0.537,0.626-0.768C13.4,2.518,14.658,2,16,2s2.6,0.518,3.541,1.459C21.493,5.412,21.493,8.588,19.541,10.541z"/>
</svg>
