<?xml version="1.0" encoding="utf-8"?>
<!-- Generator: Adobe Illustrator 17.0.0, SVG Export Plug-In . SVG Version: 6.00 Build 0)  -->
<!DOCTYPE svg PUBLIC "-//W3C//DTD SVG 1.1//EN" "http://www.w3.org/Graphics/SVG/1.1/DTD/svg11.dtd">
<svg version="1.1" id="Layer_1" xmlns="http://www.w3.org/2000/svg" xmlns:xlink="http://www.w3.org/1999/xlink" x="0px" y="0px"
	 width="22px" height="22px" viewBox="0 0 22 22" enable-background="new 0 0 22 22" xml:space="preserve">
<g>
	<path fill="#FFFFFF" d="M19,11h-0.185C18.927,10.685,19,10.352,19,10c0-1.379-0.948-2.537-2.221-2.884
		C16.592,7.065,16.399,7.034,16.2,7.02c0.384-0.417,0.65-0.939,0.749-1.52v0C16.977,5.336,17,5.171,17,5V4c0-1.65-1.35-3-3-3v1
		c0,0.55-0.45,1-1,1H9C8.289,3,7.643,3.261,7.127,3.678C7.004,3.777,6.889,3.883,6.783,4C6.545,4.263,6.36,4.57,6.227,4.903
		C6.15,5.094,6.086,5.292,6.051,5.5C6.023,5.664,6,5.829,6,6c0,0.081,0.017,0.157,0.024,0.237C6.05,6.544,6.11,6.841,6.221,7.116
		C4.948,7.463,4,8.621,4,10c0,0.352,0.073,0.685,0.185,1H4c-1.65,0-3,1.35-3,3c0,1.65,1.35,3,3,3h3v-1H4c-1.1,0-2-0.9-2-2
		c0-1.1,0.9-2,2-2h0.783H7c-0.735,0-1.373-0.406-1.721-1C5.106,10.704,5,10.365,5,10c0-1.032,0.794-1.877,1.8-1.98
		C6.867,8.014,6.932,8,7,8h2C8.265,8,7.627,7.594,7.279,7c-0.021-0.035-0.03-0.077-0.049-0.113C7.093,6.617,7,6.322,7,6
		c0-0.091,0.018-0.176,0.03-0.263C7.097,5.247,7.336,4.812,7.693,4.5C8.045,4.193,8.499,4,9,4h4c0.701,0,1.317-0.367,1.675-0.916
		c0.158-0.243,0.246-0.527,0.286-0.825C15.576,2.6,16,3.25,16,4v1c0,0.166-0.026,0.324-0.065,0.479
		c-0.1,0.459-0.35,0.878-0.694,1.243C14.518,7.49,13.342,8,12,8h2h2c0.068,0,0.133,0.014,0.2,0.02C17.206,8.123,18,8.968,18,10
		c0,0.365-0.106,0.704-0.279,1c-0.348,0.594-0.986,1-1.721,1h2.217H19c1.1,0,2,0.9,2,2c0,1.1-0.9,2-2,2h-2v1h2c1.65,0,3-1.35,3-3
		C22,12.35,20.65,11,19,11z"/>
	<polygon fill="#FFFFFF" points="11.272,14.228 14.061,17 8,17 8,18 14.067,18 11.292,20.792 12,21.5 16,17.5 12,13.5 	"/>
</g>
</svg>
