<?xml version="1.0" encoding="utf-8"?>
<!-- Generator: Adobe Illustrator 17.0.0, SVG Export Plug-In . SVG Version: 6.00 Build 0)  -->
<!DOCTYPE svg PUBLIC "-//W3C//DTD SVG 1.1//EN" "http://www.w3.org/Graphics/SVG/1.1/DTD/svg11.dtd">
<svg version="1.1" id="Layer_1" xmlns="http://www.w3.org/2000/svg" xmlns:xlink="http://www.w3.org/1999/xlink" x="0px" y="0px"
	 width="22px" height="22px" viewBox="0 0 22 22" enable-background="new 0 0 22 22" xml:space="preserve">
<g>
	<polygon fill="#FFFFFF" points="16,4 16,5 19,5 19,21 3,21 3,5 6,5 6,4 2,4 2,22 20,22 20,4 	"/>
	<path fill="#FFFFFF" d="M8,4c0-1.65,1.35-3,3-3s3,1.35,3,3v4v4c0,1.1-0.9,2-2,2s-2-0.9-2-2V6V4c0-0.55,0.45-1,1-1s1,0.45,1,1v6h1V4
		c0-1.1-0.9-2-2-2S9,2.9,9,4v2v6c0,1.65,1.35,3,3,3s3-1.35,3-3V8V4c0-2.2-1.8-4-4-4S7,1.8,7,4v8h1V4z"/>
</g>
</svg>
