<?xml version="1.0" encoding="utf-8"?>
<!-- Generator: Adobe Illustrator 17.0.0, SVG Export Plug-In . SVG Version: 6.00 Build 0)  -->
<!DOCTYPE svg PUBLIC "-//W3C//DTD SVG 1.1//EN" "http://www.w3.org/Graphics/SVG/1.1/DTD/svg11.dtd">
<svg version="1.1" id="Layer_1" xmlns="http://www.w3.org/2000/svg" xmlns:xlink="http://www.w3.org/1999/xlink" x="0px" y="0px"
	 width="22px" height="22px" viewBox="0 0 22 22" enable-background="new 0 0 22 22" xml:space="preserve">
<path fill="#FFFFFF" d="M20,5V4.992C20,3.896,19.1,3,18,3h-3V2V1.992C15,0.896,14.1,0,13,0H9C7.9,0,7,0.896,7,1.992V2v1H4
	C2.9,3,2,3.896,2,4.992V5l0,0H1v3h1.727l1.092,12.008C3.919,21.104,4.9,22,6,22h10c1.1,0,2.081-0.896,2.181-1.992L19.273,8H21V5H20z
	 M8,2c0-0.555,0.449-1,1-1h4c0.552,0,1,0.445,1,0.992V2v1H8V2z M17.185,19.917C17.133,20.494,16.579,21,16,21H6
	c-0.579,0-1.133-0.506-1.185-1.083L3.732,8h14.537L17.185,19.917z M20,7h-0.636H19h-0.641H3.641H3.565H3H2V6h0.545H3V5
	c0-0.555,0.449-1,1-1h3h1h6h1h3c0.552,0,1,0.445,1,0.992V5v0.992L20,6V7z"/>
</svg>
