<?xml version="1.0" encoding="utf-8"?>
<!-- Generator: Adobe Illustrator 17.0.0, SVG Export Plug-In . SVG Version: 6.00 Build 0)  -->
<!DOCTYPE svg PUBLIC "-//W3C//DTD SVG 1.1//EN" "http://www.w3.org/Graphics/SVG/1.1/DTD/svg11.dtd">
<svg version="1.1" id="Layer_1" xmlns="http://www.w3.org/2000/svg" xmlns:xlink="http://www.w3.org/1999/xlink" x="0px" y="0px"
	 width="22px" height="22px" viewBox="0 0 22 22" enable-background="new 0 0 22 22" xml:space="preserve">
<path fill="#FFFFFF" d="M20.309,11.563C20.729,11.157,21,10.599,21,10c0-1.1-0.896-1.919-1.992-1.819l-5.182,0.471
	c0.235-0.621,0.376-1.331,0.353-1.947l-0.103-2.707c-0.042-1.099-0.881-2.401-1.865-2.893l-0.422-0.211
	c-0.984-0.492-1.87,0.002-1.97,1.097L9.636,4.008c-0.1,1.095-0.693,2.732-1.318,3.637L8.235,7.765l-2.528,2.528
	c0,0-0.001,0.001-0.001,0.001c-0.091-0.091-0.198-0.164-0.318-0.215S5.138,10,5,10H2c-0.55,0-1,0.45-1,1v9c0,0.55,0.45,1,1,1h3
	c0.124,0,0.24-0.029,0.349-0.071c0.036-0.014,0.068-0.033,0.102-0.05C5.52,20.842,5.583,20.8,5.642,20.75
	c0.034-0.029,0.066-0.056,0.096-0.09c0.052-0.059,0.093-0.124,0.131-0.194c0.018-0.034,0.042-0.062,0.057-0.097l0,0
	c0.001,0,0.002,0.002,0.003,0.002l3.143,1.257c0.511,0.204,1.376,0.322,1.922,0.261l3.589-0.399l2.43-0.27
	C18.106,21.099,19,20.1,19,19c0-0.384-0.114-0.728-0.303-1.013C19.454,17.635,20,16.856,20,16c0-0.382-0.114-0.726-0.301-1.014
	C20.455,14.633,21,13.855,21,13C21,12.401,20.729,11.892,20.309,11.563z M2,11h3v8.988l-0.004,0.01L2,20V11z M19.691,12.35
	C19.891,12.505,20,12.736,20,13c0,0.437-0.298,0.881-0.725,1.081l-1.043,0.488l0.63,0.965C18.953,15.673,19,15.831,19,16
	c0,0.438-0.298,0.882-0.725,1.081l-1.053,0.49l0.641,0.968C17.954,18.676,18,18.831,18,19c0,0.589-0.514,1.162-1.099,1.227
	l-6.018,0.669c-0.063,0.007-0.134,0.01-0.209,0.01c-0.41,0-0.939-0.088-1.231-0.206l-3.1-1.24L6,19.289v-7.871l3.007-3.01
	l0.134-0.195c0.721-1.042,1.376-2.849,1.491-4.113l0.184-2.017c0.022-0.251,0.1-0.379,0.229-0.379c0.082,0,0.188,0.03,0.297,0.085
	L11.764,2c0.659,0.33,1.285,1.3,1.313,2.037l0.103,2.707c0.017,0.45-0.091,1.031-0.289,1.555l-0.564,1.494
	c0,0,6.778-0.616,6.782-0.616C19.662,9.177,20,9.523,20,10c0,0.299-0.141,0.607-0.386,0.845l-0.823,0.797L19.691,12.35z"/>
</svg>
