<?xml version="1.0" encoding="utf-8"?>
<!-- Generator: Adobe Illustrator 17.0.0, SVG Export Plug-In . SVG Version: 6.00 Build 0)  -->
<!DOCTYPE svg PUBLIC "-//W3C//DTD SVG 1.1//EN" "http://www.w3.org/Graphics/SVG/1.1/DTD/svg11.dtd">
<svg version="1.1" id="Layer_1" xmlns="http://www.w3.org/2000/svg" xmlns:xlink="http://www.w3.org/1999/xlink" x="0px" y="0px"
	 width="22px" height="22px" viewBox="0 0 22 22" enable-background="new 0 0 22 22" xml:space="preserve">
<g>
	<path fill="#FFFFFF" d="M14,8V3L4,11l10,8v-5c5.792,0,6,5,6,5h2C22,19,22,8,14,8z M14,13h-1v3.919L5.601,11L13,5.081V9h1
		c5.66,0,6.744,6.455,6.951,9h-0.082C20.398,15.882,18.592,13,14,13z"/>
	<polygon fill="#FFFFFF" points="10,4.6 10,3 0,11 10,19 10,17.4 2,11 	"/>
</g>
</svg>
