<?xml version="1.0" encoding="utf-8"?>
<!-- Generator: Adobe Illustrator 17.0.0, SVG Export Plug-In . SVG Version: 6.00 Build 0)  -->
<!DOCTYPE svg PUBLIC "-//W3C//DTD SVG 1.1//EN" "http://www.w3.org/Graphics/SVG/1.1/DTD/svg11.dtd">
<svg version="1.1" id="Layer_1" xmlns="http://www.w3.org/2000/svg" xmlns:xlink="http://www.w3.org/1999/xlink" x="0px" y="0px"
	 width="22px" height="22px" viewBox="0 0 22 22" enable-background="new 0 0 22 22" xml:space="preserve">
<path fill="#FFFFFF" d="M1.691,10.437C1.271,10.843,1,11.401,1,12c0,1.1,0.896,1.919,1.992,1.819l5.182-0.471
	c-0.235,0.621-0.376,1.331-0.353,1.947l0.103,2.707c0.042,1.099,0.881,2.401,1.865,2.893l0.422,0.211
	c0.984,0.492,1.87-0.002,1.97-1.097l0.183-2.016c0.1-1.095,0.693-2.732,1.318-3.637l0.083-0.119l2.528-2.528
	c0,0,0.001-0.001,0.001-0.001c0.091,0.091,0.198,0.164,0.318,0.215S16.862,12,17,12h3c0.55,0,1-0.45,1-1V2c0-0.55-0.45-1-1-1h-3
	c-0.124,0-0.24,0.029-0.349,0.071c-0.036,0.014-0.068,0.033-0.102,0.05C16.48,1.158,16.417,1.2,16.358,1.25
	c-0.034,0.029-0.066,0.056-0.096,0.09c-0.052,0.059-0.093,0.124-0.131,0.194c-0.018,0.034-0.042,0.062-0.057,0.097l0,0
	c-0.001,0-0.002-0.002-0.003-0.002l-3.143-1.257c-0.511-0.204-1.376-0.322-1.922-0.261L7.417,0.509l-2.43,0.27
	C3.894,0.901,3,1.9,3,3c0,0.384,0.114,0.728,0.303,1.013C2.546,4.365,2,5.144,2,6c0,0.382,0.114,0.726,0.301,1.014
	C1.545,7.367,1,8.145,1,9C1,9.599,1.271,10.108,1.691,10.437z M20,11h-3V2.012l0.004-0.01L20,2V11z M2.309,9.65
	C2.109,9.495,2,9.264,2,9c0-0.437,0.298-0.881,0.725-1.081l1.043-0.488l-0.63-0.965C3.047,6.327,3,6.169,3,6
	c0-0.438,0.298-0.882,0.725-1.081l1.053-0.49L4.137,3.46C4.046,3.324,4,3.169,4,3c0-0.589,0.514-1.162,1.099-1.227l6.018-0.669
	c0.063-0.007,0.134-0.01,0.209-0.01c0.41,0,0.939,0.088,1.231,0.206l3.1,1.24L16,2.711v7.871l-3.007,3.01l-0.134,0.195
	c-0.721,1.042-1.376,2.849-1.491,4.113l-0.184,2.017c-0.022,0.251-0.1,0.379-0.229,0.379c-0.082,0-0.188-0.03-0.297-0.085L10.236,20
	c-0.659-0.33-1.285-1.3-1.313-2.037L8.82,15.256c-0.017-0.45,0.091-1.031,0.289-1.555l0.564-1.494c0,0-6.778,0.616-6.782,0.616
	C2.338,12.823,2,12.477,2,12c0-0.299,0.141-0.607,0.386-0.845l0.823-0.797L2.309,9.65z"/>
</svg>
